<?xml version="1.0" standalone="no"?>
<!DOCTYPE svg PUBLIC "-//W3C//DTD SVG 20010904//EN"
 "http://www.w3.org/TR/2001/REC-SVG-20010904/DTD/svg10.dtd">
<svg version="1.0" xmlns="http://www.w3.org/2000/svg"
 width="780.000000pt" height="762.000000pt" viewBox="0 0 780.000000 762.000000"
 preserveAspectRatio="xMidYMid meet">

<g transform="translate(0.000000,762.000000) scale(0.100000,-0.100000)"
fill="#000000" stroke="none">
<path d="M3665 7554 c-22 -2 -92 -9 -155 -15 -788 -74 -1585 -435 -2166 -981
-671 -630 -1069 -1415 -1181 -2328 -24 -203 -24 -647 0 -850 112 -911 514
-1704 1179 -2327 590 -551 1344 -893 2173 -985 156 -17 604 -17 760 0 378 42
757 139 1079 277 1165 498 1991 1520 2230 2760 47 246 60 398 60 700 0 207 -4
318 -17 425 -55 447 -178 863 -368 1241 -575 1148 -1656 1909 -2934 2065 -122
14 -570 27 -660 18z m1580 -1938 c33 -8 85 -21 115 -29 30 -9 81 -22 112 -31
272 -71 529 -218 715 -408 74 -76 213 -265 213 -290 0 -5 8 -22 19 -36 19 -28
80 -193 101 -274 21 -79 24 -78 -245 -78 l-233 0 -26 31 c-14 17 -26 39 -26
50 0 30 -57 146 -101 205 -44 60 -150 164 -200 198 -190 126 -421 190 -694
191 -102 0 -179 -6 -241 -17 -112 -22 -267 -72 -314 -102 -19 -13 -56 -35 -82
-50 -41 -23 -171 -127 -203 -162 -85 -93 -198 -291 -239 -419 -45 -138 -58
-393 -30 -557 68 -397 331 -715 695 -843 147 -51 201 -59 399 -60 210 0 331
19 447 71 17 8 36 14 42 14 28 0 201 110 263 167 20 19 30 23 44 15 16 -9 17
-31 16 -247 -1 -212 -4 -240 -19 -258 -19 -20 -70 -46 -183 -92 -36 -15 -78
-33 -95 -41 -137 -62 -451 -103 -640 -84 -281 28 -353 47 -590 153 -280 125
-513 339 -687 632 -46 76 -135 294 -149 363 -5 24 -11 47 -14 51 -2 5 -11 54
-20 110 -35 235 -7 611 56 747 10 23 19 47 19 55 0 8 14 43 30 77 17 35 30 67
30 72 0 11 100 175 153 250 56 81 218 245 289 294 183 127 338 212 423 232 17
4 35 10 40 14 6 4 55 19 110 34 55 15 116 34 135 41 50 20 71 22 300 23 142 1
224 -3 265 -12z m-1861 -15 c15 -16 17 -46 17 -231 1 -181 -1 -216 -15 -231
-15 -18 -57 -19 -1206 -19 -1125 0 -1191 1 -1198 18 -9 22 -9 442 0 465 7 16
73 17 1196 17 1150 0 1189 -1 1206 -19z m-972 -748 c17 -15 18 -65 18 -1171 0
-1061 -1 -1157 -17 -1174 -15 -16 -36 -18 -234 -18 -214 0 -218 0 -233 22 -14
20 -16 148 -16 1172 0 1056 1 1151 17 1168 15 16 36 18 231 18 186 0 218 -2
234 -17z m4118 -871 c14 -32 14 -1466 0 -1493 -10 -18 -23 -19 -175 -19 -90 0
-175 4 -189 10 l-26 9 -2 523 -3 522 -655 -2 c-549 -2 -658 0 -673 11 -16 13
-17 34 -15 228 3 204 4 214 24 224 13 7 305 10 862 10 l841 0 11 -23z m0
-1784 c2 -193 0 -522 -3 -524 -2 -2 -552 -4 -1223 -5 l-1219 0 -3 275 -2 276
1225 0 1225 0 0 -22z"/>
</g>
</svg>
